<?xml version="1.0" standalone="no"?>
<!DOCTYPE svg PUBLIC "-//W3C//DTD SVG 1.1//EN" "http://www.w3.org/Graphics/SVG/1.1/DTD/svg11.dtd" >
<svg xmlns="http://www.w3.org/2000/svg">
<metadata>Generated by IcoMoon</metadata>
<defs>
<font id="icomoon" horiz-adv-x="1024">
<font-face units-per-em="1024" ascent="960" descent="-64" />
<missing-glyph horiz-adv-x="1024" />
<glyph unicode="&#x20;" horiz-adv-x="512" d="" />
<glyph unicode="&#xb600;" glyph-name="b600" d="M1022.57 725.224c0-36.974-30.073-66.962-67.17-66.962h-513.528c-37.098 0-67.171 29.988-67.171 66.962v0c0 36.991 30.073 66.963 67.171 66.963h513.528c37.097 0 67.17-29.971 67.17-66.963v0zM158.668 725.216c0-36.921-29.74-66.883-66.434-66.883h-27.763c-36.694 0-66.434 29.962-66.434 66.883v0c0 36.936 29.74 66.9 66.434 66.9h27.763c36.694 0 66.434-29.962 66.434-66.9v0zM1022.57 453.288c0-36.974-30.073-66.963-67.17-66.963h-513.528c-37.098 0-67.171 29.989-67.171 66.963v0c0 36.991 30.073 66.962 67.171 66.962h513.528c37.097 0 67.17-29.971 67.17-66.962v0zM158.668 453.28c0-36.92-29.74-66.882-66.434-66.882h-27.763c-36.694 0-66.434 29.962-66.434 66.882v0c0 36.937 29.74 66.9 66.434 66.9h27.763c36.694 0 66.434-29.962 66.434-66.9v0zM1022.57 178.136c0-36.974-30.073-66.963-67.17-66.963h-513.528c-37.098 0-67.171 29.989-67.171 66.963v0c0 36.991 30.073 66.963 67.171 66.963h513.528c37.097-0.001 67.17-29.972 67.17-66.963v0zM158.668 178.128c0-36.92-29.74-66.882-66.434-66.882h-27.763c-36.694 0-66.434 29.962-66.434 66.882v0c0 36.937 29.74 66.901 66.434 66.901h27.763c36.694 0 66.434-29.963 66.434-66.901v0z" />
<glyph unicode="&#xb601;" glyph-name="b601" d="M722.785 606.086c8.589 1.927 21.636 3.814 31.531-11.341l8.21-34.142c0 0 20.19-11.361 59.331-3.794 39.12 7.567 83.939 34.122 83.939 34.122s-5.578 19.77-1.845 40.565c8.69 48.775 4.495 151.663-6.383 174.345-13.267 27.739-40.343 58.128-106 60.656-26.576 23.242-76.612 53.23-123.361 74.507-1.827 0.842 0.382 3.793-1.505 4.596-13.591 5.922-27.277 10.919-40.486 14.432l-7.587-48.011-106.641-108.065-106.661 108.066-7.588 48.011c-13.208-3.513-26.897-8.51-40.485-14.432-1.886-0.802 0.321-3.753-1.505-4.596-46.747-21.277-96.786-51.265-123.362-74.507-65.635-2.529-92.732-32.918-105.999-60.656-10.879-22.682-15.073-125.569-6.382-174.345 3.733-20.795-1.847-40.565-1.847-40.565s44.821-26.555 83.941-34.122c39.14-7.567 59.332 3.794 59.332 3.794l8.209 34.142c9.895 15.154 22.942 13.267 31.532 11.341 8.592-1.887 8.209-79.605 5.701-132.675-2.509-53.090-126.433-421.589-128.319-428.533s-2.509-37.936 12.002-44.238c13.73-6.004 125.75-57.167 287.248-64.874 10.358-0.683 21.738-1.003 34.221-0.922 174.344-1.045 327.492 63.265 327.492 63.265s0.242 3.174 0.422 8.191c7.687 11.221 7.008 32.897 5.458 38.579-1.885 6.944-125.789 375.443-128.319 428.533-2.506 53.068-2.888 130.786 5.705 132.673zM596.331 704.538c0-11.622-9.455-21.075-21.076-21.075-14.422 0-28.844 9.935-43.265 22.902l21.568-79.685-10.759 4.175-7.707-9.033-21.85 80.729-21.146-80.749-7.708 9.052-10.758-4.196 21.588 82.616c-15.496-14.391-31.001-25.812-46.497-25.812-11.622 0-21.076 9.453-21.076 21.075 0 10.557 5.279 15.837 15.817 21.095-10.538 5.259-15.817 10.518-15.817 21.076 0 11.641 9.453 21.075 21.076 21.075 18.868 0 37.725-16.861 56.582-35.508 0.252 0.060 0.552 0.020 0.823 0.020 5.149 1.486 11.011 4.256 15.195 2.57 17.974 17.583 35.95 32.918 53.933 32.918 11.62 0 21.076-9.434 21.076-21.075 0-10.558-5.261-15.817-15.798-21.076 10.537-5.258 15.798-10.537 15.798-21.094z" />
<glyph unicode="&#xb602;" glyph-name="b602" d="M861.894 804.483c-5.563 28.375-21.072 47.313-49.27 60.423l-187.057 86.94c0 0-3.682-51.787-8.617-59.199-4.897-7.422-99.716-101.754-99.716-101.754h-13.865c0 0-94.823 94.332-99.757 101.754-4.935 7.412-8.616 59.199-8.616 59.199l-187.058-86.939c-31.764-14.776-45.236-40.37-49.27-60.423-3.996-20.063-157.643-817.671-157.643-817.671s23.97-19.152 55.419-23.421c31.45-4.308 56.674 4.934 56.674 4.934l129.288 638.82-44.297-609.22c0 0 157.603-54.275 285.677-51.808l26.515 0.664 26.477-0.664c128.071-2.467 285.677 51.808 285.677 51.808l-44.297 609.22 131.127-636.983c0 0 28.944-8.654 63.45-4.345 34.467 4.307 48.605 22.834 48.605 22.834s-153.883 787.455-159.445 815.83zM510.299 268.213l-63.762 49.396 55.42 366.242-40.655 42.515 47.9 46.217 0.158 1.938 0.939-0.911 0.901 0.911 0.157-1.938 47.901-46.217-40.655-42.515 55.42-366.242-63.723-49.396z" />
<glyph unicode="&#xb603;" glyph-name="b603" d="M401.505 958.988c0 0 57.879-133.724-27.949-203.585 0 0 119.758 39.913 137.724-69.862 0 0 39.913 107.775 127.74 71.862 0 0-65.861 151.689-7.983 203.585 0 0 57.878-53.897 111.775-67.862 0 0 91.809-6.001 87.809-81.845l-87.809-63.861-25.948 17.966c0 0 43.914-87.827-21.948-161.671 0 0-77.844-83.827-19.965-167.673 0 0 119.757-307.653 73.843-467.343 0 0-231.533-69.549-483.014-5.689 0 0-55.896 223.55 89.809 473.030 0 0 31.93 39.931 0 123.759 0 0-73.844 59.879-33.931 189.62l-21.948-11.983-97.811 75.844c0 0 4.001 77.845 99.811 85.828 0.001 0.001 81.827 0.001 99.793 59.88zM523.337 871.601c0-5.743-4.662-10.405-10.406-10.405-5.761 0-10.405 4.662-10.405 10.405 0 5.762 4.644 10.424 10.405 10.424 5.745-0.001 10.406-4.662 10.406-10.424zM544.166 883.309c0-4.294-3.487-7.799-7.799-7.799s-7.819 3.505-7.819 7.799c0 4.331 3.506 7.818 7.819 7.818 4.311 0 7.799-3.486 7.799-7.818zM558.057 898.118c0-3.23-2.623-5.873-5.853-5.873s-5.855 2.643-5.855 5.873c0 3.23 2.624 5.872 5.855 5.872s5.853-2.642 5.853-5.872zM573.032 911.092c0-3.23-2.624-5.873-5.854-5.873s-5.872 2.643-5.872 5.873c0 3.248 2.641 5.854 5.872 5.854s5.854-2.606 5.854-5.854zM583.014 929.058c0-3.23-2.624-5.873-5.854-5.873-3.248 0-5.872 2.643-5.872 5.873 0 3.248 2.624 5.854 5.872 5.854 3.23 0 5.854-2.606 5.854-5.854zM591.126 945.023c0-3.23-2.625-5.872-5.873-5.872-3.23 0-5.854 2.642-5.854 5.872 0 3.248 2.624 5.853 5.854 5.853 3.247 0 5.873-2.605 5.873-5.853zM466.137 898.264c-0.33-3.211 2.001-6.111 5.23-6.422 3.212-0.367 6.093 2.019 6.405 5.212 0.349 3.23-2 6.093-5.23 6.441-3.212 0.331-6.074-2.018-6.405-5.23zM452.557 912.689c-0.33-3.211 2.002-6.11 5.23-6.422 3.211-0.331 6.093 2.019 6.441 5.23 0.312 3.248-2.036 6.111-5.267 6.442-3.21 0.311-6.073-2.020-6.404-5.25zM444.465 931.572c-0.331-3.212 2.001-6.093 5.212-6.423 3.23-0.33 6.093 2.037 6.422 5.213 0.349 3.248-2.001 6.11-5.23 6.459-3.211 0.33-6.092-2.037-6.404-5.249zM438.024 948.271c-0.331-3.211 2.001-6.074 5.23-6.423 3.193-0.312 6.074 2.037 6.422 5.23 0.331 3.248-2.019 6.111-5.249 6.441-3.212 0.35-6.092-2.018-6.404-5.248zM496.012 882.666c0-4.312-3.505-7.817-7.817-7.817s-7.8 3.505-7.8 7.817c0 4.313 3.486 7.8 7.8 7.8s7.817-3.486 7.817-7.8z" />
<glyph unicode="&#xb604;" glyph-name="b604" d="M1025.032 599.998l-318.276 249.522h-40.925c-19.524-54.428-80.956-94.212-153.854-94.212-72.897 0-134.329 39.784-153.853 94.212h-33.288l-325.909-236.793 132.412-190.968 132.381 71.299-15.275-450.675h529.611l-15.275 476.133 114.578-101.85 147.673 183.332zM597.971 353.267l-90.455 47.562-90.454-47.562 17.276 100.726-73.179 71.335 101.129 14.695 45.227 91.648 45.227-91.648 101.129-14.695-73.179-71.335 17.278-100.726z" />
<glyph unicode="&#xb605;" glyph-name="b605" d="M676.925 721.853c-10.374 72.238-2.831 161.966-13.271 237.155-3.030-1.281-30.264-1.495-35.685-0.054-1.629-73.053 10.106-179.401-64.657-179.401l-106.416-1.683c-81.023 0-73.213 119.966-78.087 174.129l-39.331 0.801c-1.495-83.24 7.103-133.464-4.299-234.18-94.627-202.132-70.569-526.787-130.647-764.236-2.497-14.232 106.736-13.404 136.334-14.365l145.453-1.522c3.443-5.768 90.261 2.776 95.895 6.675l95.816-6.222c36.099-1.736 39.223 11.722 78.929 8.437 22.562-1.869 57.499-21.573 57.499 14.152v28.703c0.002 201.673-62.571 576.871-137.533 731.61zM605.514 650.215c0-12.282-9.959-22.242-22.241-22.242-15.221 0-30.454 10.493-45.687 24.19l22.776-84.14-11.348 4.432-8.129-9.532-23.056 85.182-22.295-85.182-8.143 9.532-11.347-4.432 22.775 87.198c-16.353-15.206-32.722-27.248-49.076-27.248-12.269 0-22.242 9.96-22.242 22.242 0 11.135 5.553 16.701 16.688 22.242-11.135 5.555-16.688 11.121-16.688 22.269 0 12.282 9.973 22.242 22.242 22.242 19.905 0 39.811-17.796 59.689-37.474 0.294 0.053 0.627 0.013 0.921 0.040 5.434 1.576 11.601 4.445 16.008 2.67 18.97 18.571 37.954 34.765 56.913 34.765 12.282 0 22.241-9.959 22.241-22.242 0-11.148-5.541-16.714-16.674-22.269 11.133-5.54 16.674-11.107 16.674-22.242z" />
<glyph unicode="&#xb606;" glyph-name="b606" d="M959.36 741.824c-3.072 50.24-44.384 90.112-95.36 90.112h-96v32.064c0 53.024-43.008 96-96 96h-320c-53.024 0-96-42.976-96-96v-32.032h-96c-51.040 0-92.32-39.872-95.392-90.112h-0.608v-69.856c0-35.328 28.672-64 64-64v0-544c0-70.688 57.312-128 128-128h512c70.688 0 128 57.312 128 128v544c35.328 0 64 28.672 64 64v69.824h-0.64zM320 863.968c0 17.696 14.304 32 32 32h320c17.696 0 32-14.304 32-32v-32h-384v32zM832 63.968c0-35.264-28.736-64-64-64h-512c-35.296 0-64 28.736-64 64v544h640v-544zM896 704v-32h-768v63.968c0 17.696 14.304 32 32 32h704c17.696 0 32-14.304 32-32v-31.968zM288 63.84h64c17.696 0 32 14.304 32 32v416c0 17.696-14.304 32-32 32h-64c-17.696 0-32-14.304-32-32v-416c0-17.696 14.304-32 32-32zM288 511.872h64v-416h-64v416zM480 63.84h64c17.696 0 32 14.304 32 32v416c0 17.696-14.304 32-32 32h-64c-17.696 0-32-14.304-32-32v-416c0-17.696 14.304-32 32-32zM480 511.872h64v-416h-64v416zM672 63.84h64c17.696 0 32 14.304 32 32v416c0 17.696-14.304 32-32 32h-64c-17.696 0-32-14.304-32-32v-416c0-17.696 14.304-32 32-32zM672 511.872h64v-416h-64v416z" />
<glyph unicode="&#xb607;" glyph-name="b607" d="M512.269 960.032c-282.597 0-511.687-229.090-511.687-511.688 0-282.587 229.090-511.698 511.687-511.698s511.688 229.111 511.688 511.698c0 282.599-229.090 511.688-511.688 511.688zM512.269 43.123c-223.8 0-405.221 181.43-405.221 405.221 0 223.801 181.421 405.222 405.221 405.222s405.233-181.421 405.233-405.222c0-223.791-181.432-405.221-405.233-405.221zM727.232 725.363l-214.962-219.057-214.963 219.057-62.348-63.128 215.164-219.259-204.9-208.803 62.337-63.129 204.708 208.604 204.708-208.604 62.338 63.129-204.9 208.802 215.165 219.259-62.349 63.129z" />
<glyph unicode="&#xb608;" glyph-name="b608" d="M251.374 957.969l1.716 1.72 511.845-511.85-511.812-511.808v187.506l324.306 324.302-324.306 324.31v185.819h-1.75z" />
<glyph unicode="&#xb609;" glyph-name="b609" d="M763.186 957.969v-185.819l-324.306-324.31 324.306-324.302v-187.506l-511.812 511.808 511.845 511.85 1.716-1.72h-1.75z" />
<glyph unicode="&#xb610;" glyph-name="b610" d="M513.89-63.040c-282.048 0-511.506 229.461-511.506 511.508 0 282.045 229.458 511.506 511.506 511.506 282.045 0 511.506-229.461 511.506-511.506 0-282.048-229.461-511.508-511.506-511.508v0zM513.89 911.261c-255.178 0-462.792-207.612-462.792-462.792 0-255.187 207.612-462.792 462.792-462.792 255.187 0 462.792 207.606 462.792 462.792-0.003 255.181-207.609 462.792-462.792 462.792v0zM512.714 672.42h-218.419c-14.339 0-21.507 7.162-21.507 21.495 0 14.716 7.168 22.072 21.507 22.072h455.461c13.941 0 20.907-7.355 20.907-22.072 0-14.333-6.966-21.495-20.907-21.495h-190.558v-152.787h186.482c13.941 0 20.919-6.785 20.919-20.342 0-8.128-1.556-14.327-4.649-18.581-3.865-3.879-9.292-5.813-16.273-5.813h-186.482v-201.008h210.888c14.321 0 21.489-7.358 21.489-22.083 0-14.705-7.168-22.075-21.489-22.075h-511.819c-14.336 0-21.489 7.37-21.489 22.075 0 14.725 7.15 22.083 21.489 22.083h77.274v307.326c0 13.552 7.741 20.331 23.23 20.331 15.114 0 22.663-6.779 22.663-20.331v-307.323h131.283v398.529z" />
<glyph unicode="&#xb611;" glyph-name="b611" d="M751.168 561.799l-302.934-31.416v142.131c0 14.28-11.612 25.875-25.893 25.875-14.304 0-25.893-11.595-25.893-25.875v-147.488l-144.694-15.012c-14.219-1.469-24.553-14.198-23.101-28.432 1.407-13.315 12.639-23.227 25.726-23.227 0.898 0 1.805 0.082 2.709 0.167l139.337 14.409v-128.357c0-74.612 20.035-120.835 119.723-120.835h139.211c28.836 0 96.35 0 96.35 79.129 0 14.283-11.595 25.895-25.893 25.895-14.304 0-25.872-11.612-25.872-25.895 0-21.715-1.767-27.344-44.585-27.344h-139.208c-61.657 0-67.918 13.069-67.918 69.056v133.726l308.262 31.963c14.216 1.492 24.553 14.237 23.084 28.435-1.469 14.237-14.412 24.479-28.412 23.096v0zM516.172-9.286c-250.429 0-454.176 203.744-454.176 454.156 0 250.447 203.747 454.2 454.176 454.2 250.453 0 454.197-203.747 454.197-454.2 0-250.412-203.747-454.156-454.197-454.156zM516.172 950.831c-278.99 0-505.964-226.992-505.964-505.961s226.974-505.944 505.964-505.944c279.011 0 505.982 226.994 505.982 505.944 0 278.97-226.971 505.961-505.982 505.961z" />
<glyph unicode="&#xc001;" glyph-name="c001" d="M511.98 960c-282.788 0-511.98-229.198-511.98-512 0-282.75 229.192-512 511.98-512 282.737 0 511.977 229.25 511.977 512 0 282.802-229.24 512-511.977 512zM595.975 211.199c0-53.598-18.247-80.396-54.795-80.396-16.25 0-29.354 5.497-39.2 16.396-9.902 10.951-14.8 27.101-14.8 48.4v364.002c-67.748-52.004-113.345-78.003-136.795-78.003-11.199 0-21.149 4.499-29.8 13.399-8.648 8.951-12.997 19.303-12.997 31.003 0 13.597 4.248 23.598 12.801 29.998 8.495 6.4 23.597 14.699 45.196 24.8 32.248 15.2 58.049 31.2 77.396 47.999 19.351 16.801 36.449 35.599 51.399 56.4s24.651 33.599 29.2 38.4c4.551 4.8 13.050 7.204 25.599 7.204 14.15 0 25.449-5.452 33.998-16.402 8.549-10.901 12.798-26.002 12.798-45.203v-457.999z" />
<glyph unicode="&#xc002;" glyph-name="c002" d="M512.593 960c-282.442 0-511.357-229.202-511.357-512.002 0-282.748 228.916-511.998 511.357-511.998 282.401 0 511.365 229.25 511.365 511.998 0 282.8-228.964 512.002-511.365 512.002zM698.964 205.598c-8.643-9.046-21.772-13.603-39.349-13.603h-294.037c-19.974 0-35.553 5.552-46.74 16.604-11.189 11.101-16.779 24.1-16.779 38.997 0 9.602 3.597 22.348 10.786 38.202 7.194 15.9 15.033 28.351 23.572 37.403 35.403 36.798 67.364 68.348 95.88 94.596 28.516 26.301 48.888 43.552 61.122 51.803 21.824 15.498 39.999 31 54.532 46.597 14.535 15.603 25.569 31.603 33.161 48 7.59 16.403 11.382 32.503 11.382 48.202 0 17.1-4.042 32.349-12.182 45.796-8.138 13.5-19.174 23.956-33.159 31.401-13.981 7.5-29.21 11.202-45.741 11.202-34.907 0-62.323-15.301-82.295-45.999-2.65-4.003-7.142-14.902-13.384-32.8-6.242-17.853-13.336-31.603-21.174-41.205-7.84-9.596-19.376-14.395-34.558-14.395-13.335 0-24.369 4.396-33.16 13.198-8.787 8.798-13.182 20.8-13.182 36 0 18.399 4.147 37.598 12.383 57.601 8.242 19.999 20.577 38.15 36.954 54.4 16.381 16.301 37.154 29.399 62.322 39.398s54.685 14.999 88.49 14.999c40.748 0 75.507-6.398 104.272-19.199 18.623-8.502 35.006-20.248 49.136-35.199 14.134-14.899 25.12-32.201 32.96-51.799 7.84-19.601 11.786-39.902 11.786-61.002 0-33.049-8.191-63.1-24.571-90.2-16.377-27.049-33.108-48.25-50.137-63.597-17.028-15.301-45.59-39.399-85.692-72.2s-67.565-58.254-82.499-76.403c-6.39-7.197-12.933-15.848-19.576-26h208.541c20.779 0 36.604-4.248 47.544-12.795 10.934-8.502 16.376-20.104 16.376-34.802-0.003-13.051-4.345-24.102-12.984-33.2z" />
<glyph unicode="&#xc003;" glyph-name="c003" d="M511.984 960c-282.794 0-511.984-229.199-511.984-511.997 0-282.75 229.19-512.003 511.984-512.003 282.737 0 511.973 229.253 511.973 512.003 0 282.798-229.236 511.997-511.973 511.997zM690.977 248c-9.756-22.648-24.050-42.849-43.006-60.6-18.949-17.699-41.398-31.6-67.395-41.597-25.996-10.003-54.746-14.997-86.191-14.997-32 0-60.65 5.743-86.003 17.199-25.345 11.496-46.195 25.801-62.598 42.998-16.394 17.199-28.794 35.003-37.199 53.398-8.398 18.404-12.598 33.6-12.598 45.6 0 15.5 5.004 27.957 15.001 37.405 9.997 9.499 22.45 14.198 37.397 14.198 7.45 0 14.651-2.196 21.601-6.601 6.905-4.396 11.452-9.651 13.605-15.798 13.847-37.047 28.695-64.6 44.597-82.602 15.848-18.003 38.199-26.998 66.993-26.998 16.553 0 32.447 4.098 47.802 12.203 15.35 8.147 27.999 20.199 37.996 36.2 9.997 15.992 14.999 34.547 14.999 55.596 0 31.198-8.549 55.704-25.603 73.401-17.045 17.751-40.791 26.598-71.192 26.598-5.351 0-13.597-0.502-24.799-1.599-11.202-1.047-18.403-1.599-21.601-1.599-14.652 0-25.998 3.698-33.993 10.997-8.004 7.353-12.005 17.554-12.005 30.599 0 12.802 4.805 23.155 14.401 31 9.603 7.906 23.852 11.801 42.801 11.801h16.403c24.495 0 45.643 7.202 63.393 21.602 17.75 14.402 26.596 35.103 26.596 62.001 0 20.548-7.049 38.201-21.192 52.998-14.151 14.803-33.205 22.2-57.201 22.2-16.303 0-29.651-2.25-40.202-6.799-10.55-4.503-18.848-10.498-24.996-18.002-6.146-7.451-11.952-17.045-17.401-28.802-5.451-11.695-10.497-22.799-15-33.199-2.645-5.601-7.45-9.999-14.401-13.197-6.943-3.198-14.946-4.797-23.997-4.797-10.649 0-20.494 4.344-29.4 12.999-8.951 8.694-13.4 20.199-13.4 34.601 0 13.893 4.206 28.5 12.605 43.795 8.397 15.35 20.645 29.954 36.797 43.803 16.152 13.901 36.199 24.998 60.195 33.396 24.004 8.406 50.797 12.605 80.401 12.605 25.846 0 49.446-3.502 70.79-10.603 21.351-7.051 39.854-17.251 55.601-30.599 15.698-13.303 27.597-28.803 35.602-46.403 7.995-17.601 11.997-36.496 11.997-56.795 0-26.649-5.797-49.502-17.402-68.602-11.594-19.049-28.195-37.649-49.796-55.801 20.799-11.195 38.352-23.998 52.602-38.399 14.247-14.401 24.997-30.302 32.195-47.798 7.201-17.457 10.801-36.306 10.801-56.604-0.003-24.25-4.854-47.701-14.598-70.401z" />
<glyph unicode="&#xc004;" glyph-name="c004" d="M511.978 960c-282.788 0-511.977-229.201-511.977-512.003 0-282.75 229.191-511.997 511.977-511.997 282.741 0 511.98 229.247 511.98 511.997 0 282.802-229.239 512.003-511.98 512.003zM712.771 276.594c-10.15-7.046-25.349-10.598-45.599-10.598h-24.401v-74.402c0-20.493-4.548-35.798-13.598-45.798-9.101-9.999-21.2-15.001-36.399-15.001-14.949 0-26.999 5.153-36.199 15.401-9.198 10.304-13.797 25.401-13.797 45.398v74.402h-200.793c-25.348 0-44.347 5.754-56.997 17.202-12.649 11.504-18.999 27.104-18.999 46.798 0 5.104 0.95 10.2 2.801 15.403 1.849 5.198 4.649 10.704 8.398 16.398 3.7 5.752 7.6 11.305 11.6 16.599 3.999 5.353 8.949 11.907 14.798 19.6l211.992 283.601c13.848 18.699 25.247 32.198 34.198 40.6 8.948 8.402 19.65 12.603 32.2 12.603 40.546 0 60.795-23.202 60.795-69.602v-309.602h17.202c20.499 0 36.998-2.798 49.396-8.399 12.402-5.6 18.602-17.846 18.602-36.799-0.001-15.448-5.052-26.696-15.2-33.803zM542.778 355.594v232.402l-171.994-232.402h171.994z" />
<glyph unicode="&#xc005;" glyph-name="c005" d="M510.994 960c-282.553 0-511.554-229.2-511.554-512.001 0-282.749 229.001-511.999 511.554-511.999 282.502 0 511.554 229.25 511.554 511.999 0 282.801-229.052 512.001-511.554 512.001zM684.442 234.401c-17.337-31.701-42.315-56.9-74.935-75.6-32.622-18.6-70.289-28.001-112.901-28.001-47.711 0-86.376 8.8-116.101 26.399s-50.756 37.802-63.146 60.602c-12.388 22.8-18.582 42.749-18.582 59.798 0 10.401 4.345 20.302 12.988 29.603 8.642 9.349 19.483 13.999 32.572 13.999 22.381 0 39.016-12.899 49.956-38.8 10.64-23.699 25.029-42.2 43.163-55.399 18.084-13.201 38.367-19.803 60.749-19.803 20.53 0 38.514 5.351 53.951 16.002 15.438 10.7 27.379 25.348 35.768 43.998 8.391 18.701 12.592 39.902 12.592 63.601 0 25.599-4.55 47.5-13.588 65.599-9.045 18.151-21.182 31.7-36.367 40.599-15.189 8.951-32.124 13.402-50.756 13.402-22.931 0-39.317-2.801-49.158-8.4-9.844-5.6-24.030-15.401-42.565-29.399-18.533-14.004-33.769-21.001-45.759-21.001-13.041 0-24.678 4.749-34.769 14.198-10.142 9.5-15.187 20.201-15.187 32.201 0 1.35 1.448 10.401 4.396 27.201l33.571 191.6c3.745 22.951 10.64 39.6 20.783 50.001 10.139 10.4 26.627 15.599 49.558 15.599h211.015c41.565 0 62.346-15.849 62.346-47.599 0-13.85-5.095-25.050-15.187-33.599-10.143-8.5-25.078-12.801-44.76-12.801h-189.834l-22.781-129.6c37.817 20.3 72.739 30.4 104.71 30.4 25.578 0 49.503-4.799 71.735-14.4 22.235-9.6 41.766-22.85 58.553-39.798 16.785-16.902 29.971-37.002 39.564-60.2 9.59-23.201 14.386-48.102 14.386-74.803-0.001-38.651-8.691-73.851-25.976-105.601z" />
<glyph unicode="&#xc006;" glyph-name="c006" d="M511.82 960c-282.874 0-512.134-229.51-512.134-512.638 0-283.12 229.26-512.631 512.134-512.631 282.829 0 512.138 229.511 512.138 512.631-0.001 283.128-229.311 512.638-512.138 512.638zM686.468 227.494c-17.205-30.714-41.211-54.666-72.018-71.886-30.809-17.224-65.669-25.832-104.631-25.832-44.811 0-83.47 10.935-116.028 32.841-32.56 21.874-57.418 54.264-74.621 97.121-17.205 42.85-25.806 95.239-25.806 157.19 0 50.46 5.202 95.593 15.605 135.366 10.403 39.777 25.358 72.74 44.81 98.925 19.456 26.156 43.064 45.904 70.819 59.273 27.755 13.341 59.366 20.024 94.825 20.024 34.161 0 64.219-6.683 90.228-20.024 26.003-13.368 45.611-29.914 58.812-49.664 13.207-19.774 19.805-38.722 19.805-56.869 0-10.963-4.151-20.9-12.4-29.838-8.301-8.96-18.806-13.413-31.611-13.413-11.204 0-21.606 3.526-31.209 10.613-9.605 7.058-16.652 16.868-21.204 29.436-6.154 16.019-15.855 28.887-29.21 38.648-13.35 9.733-28.808 14.614-46.411 14.614-14.153 0-28.206-4.079-42.212-12.212-14.001-8.158-25.807-19.174-35.407-33.041-19.456-28.312-30.958-78.775-34.41-151.386 18.154 21.626 37.862 37.647 59.214 48.059 21.357 10.41 45.216 15.618 71.623 15.618 25.351 0 48.76-4.754 70.215-14.219 21.457-9.484 40.263-22.976 56.417-40.447 16.103-17.499 28.607-38.123 37.408-61.878 8.805-23.78 13.203-48.611 13.203-74.492-0.002-37.645-8.603-71.837-25.806-102.526zM559.033 431.145c-14.405 9.21-30.257 13.816-47.614 13.816-16.552 0-32.356-4.402-47.411-13.215-15.054-8.811-27.209-21.574-36.412-38.247-9.204-16.697-13.802-36.243-13.802-58.672 0-36.044 9.353-66.086 28.008-90.113 18.655-24.029 42.16-36.045 70.419-36.045 26.956 0 49.212 11.015 66.817 33.042 17.605 22.030 26.409 50.912 26.409 86.709 0 24.278-4.153 45.178-12.406 62.678-8.303 17.472-19.605 30.838-34.008 40.049z" />
<glyph unicode="&#xc007;" glyph-name="c007" d="M511.98 960c-282.791 0-511.98-229.199-511.98-512 0-282.75 229.189-512 511.98-512 282.736 0 511.977 229.25 511.977 512 0 282.802-229.241 512-511.977 512zM702.57 625.6c-13.451-18.399-28.8-38.699-45.998-60.998-17.198-22.252-34.948-49.902-53.2-82.999-18.298-33.051-34.995-73.45-50.194-121.2-6.401-21.049-10.947-38.5-13.6-52.399-2.702-13.852-5.603-31.85-8.8-54-3.202-22.102-5.999-39.053-8.398-50.801-5.603-27.198-13.553-46.051-23.8-56.602-10.253-10.498-23.949-15.798-41.002-15.798-16.246 0-29.347 5.7-39.196 17.001-9.899 11.348-14.799 28.098-14.799 50.199 0 17.1 3.598 40.301 10.798 69.6 7.2 29.348 18.951 64.499 35.199 105.4 16.252 40.951 36.6 82.95 60.997 125.999 24.402 43.102 53.398 85.951 86.997 128.601h-213.99c-22.399 0-39.15 4.1-50.196 12.2-11.103 8.151-16.6 20.899-16.6 38.202 0 18.399 5.849 30.3 17.598 35.6 11.751 5.35 28.149 8 49.199 8h266.391c25.595 0 44.148-4 55.594-12 11.451-8.001 17.201-21.2 17.201-39.602-0.001-11.202-6.753-26.001-20.201-44.401z" />
<glyph unicode="&#xc008;" glyph-name="c008" d="M548.088 403.6c-15.481 8.304-32.758 12.4-51.933 12.4-27.164 0-49.935-9.048-68.311-27.201-18.377-18.098-27.565-43.449-27.565-76.001 0-20.799 4.344-39.1 12.984-54.997 8.639-15.853 20.424-28.103 35.354-36.801 14.93-8.651 31.559-13.003 49.934-13.003 18.627 0 35.405 4.4 50.335 13.201 14.929 8.8 26.615 21.201 35.154 37.201 8.538 15.998 12.783 34.398 12.783 55.199s-4.245 38.95-12.783 54.399c-8.538 15.505-20.522 27.354-35.953 35.602zM497.753 492.4c12.484 0 23.919 2.001 34.156 6.001s19.026 9.549 26.365 16.601c7.34 7.099 12.984 15.499 16.979 25.199 3.994 9.748 5.992 20.502 5.992 32.198 0 15.751-3.546 29.903-10.588 42.4-7.040 12.553-16.978 22.4-29.761 29.6s-27.463 10.8-43.943 10.8c-25.067 0-45.192-7.797-60.521-23.399-15.329-15.6-22.97-35.649-22.97-60.201 0-22.65 7.841-41.499 23.57-56.599 15.68-15.051 35.954-22.6 60.721-22.6zM511.337 960c-282.434 0-511.337-229.2-511.337-512.001 0-282.751 228.903-511.999 511.337-511.999 282.381 0 511.334 229.248 511.334 511.999 0 282.801-228.952 512.001-511.334 512.001zM681.914 219.001c-16.229-27.301-40.098-48.699-71.508-64.201-31.41-15.448-68.46-23.2-111.055-23.2-44.193 0-82.043 7.753-113.453 23.2-31.408 15.502-55.128 36.749-71.108 63.802-15.979 27.101-23.968 57.398-23.968 91 0 71.751 33.807 120.95 101.468 147.6-54.628 25.6-81.894 65.999-81.894 121.199 0 26.703 7.242 51.802 21.772 75.402 14.531 23.601 35.804 42.501 63.917 56.598 28.065 14.152 60.92 21.2 98.472 21.2 31.661 0 59.523-4.096 83.492-12.399 23.969-8.249 43.943-19.651 59.924-34.198 15.978-14.5 27.813-30.901 35.553-49.2 7.738-18.252 11.586-37.651 11.586-58.202 0-26.096-6.743-49.447-20.174-70-13.483-20.498-33.506-37.296-60.122-50.399 22.62-8.8 41.397-20.298 56.327-34.6 14.928-14.251 26.165-30.798 33.756-49.599 7.589-18.798 11.385-39.65 11.385-62.602 0.001-33.602-8.138-64.054-24.368-91.402z" />
<glyph unicode="&#xc009;" glyph-name="c009" d="M552.118 615.999c-8.95 11.2-19.601 19.999-32.002 26.4s-25.953 9.6-40.603 9.6c-25.353 0-46.804-10.85-64.407-32.598-17.601-21.701-26.401-50.451-26.401-86.201 0-35.451 8.8-63.7 26.401-84.8 17.603-21.051 39.855-31.601 66.808-31.601 16.501 0 32.303 4.351 47.404 13.002 15.052 8.698 27.352 21.299 36.803 37.799 9.451 16.549 14.201 36 14.201 58.399 0 18.149-2.452 34.9-7.4 50.201-4.952 15.351-11.854 28.599-20.805 39.799zM511.914 960c-282.822 0-512.043-229.2-512.043-512 0-282.752 229.221-512 512.043-512 282.774 0 512.043 229.248 512.043 512 0 282.8-229.269 512-512.043 512zM685.13 308.598c-10.401-39.049-25.552-71.848-45.404-98.4-19.902-26.5-43.653-46.249-71.404-59.2-27.753-12.899-59.205-19.4-94.408-19.4-34.654 0-64.806 6.598-90.408 19.802-25.602 13.198-45.104 29.6-58.405 49.199-13.352 19.6-20.002 38.5-20.002 56.601 0 11.2 4.1 21.2 12.398 29.999 8.252 8.801 18.803 13.2 31.606 13.2 11.7 0 22.25-3.25 31.6-9.799 9.352-6.5 16.403-16.301 21.204-29.401 5.85-15.999 15.599-28.849 29.2-38.599 13.602-9.701 28.904-14.601 46.006-14.601 15.201 0 29.602 3.9 43.204 11.599 13.601 7.748 25.2 18.7 34.801 32.801 19.202 28.549 30.653 78.949 34.404 151.2-17.601-20.799-37.252-36.449-59.005-47-21.75-10.499-45.803-15.799-72.206-15.799-25.052 0-48.455 4.9-70.205 14.602-21.751 9.748-40.554 23.348-56.406 40.8-15.902 17.499-28.052 37.898-36.605 61.197-8.55 23.352-12.802 47.801-12.802 73.402 0 27.5 4.8 53.55 14.401 78.2 9.602 24.7 23.354 46.1 41.206 64.199 17.851 18.15 39.102 32.301 63.805 42.4 24.652 10.15 51.905 15.201 81.806 15.201 34.404 0 65.056-6.251 92.009-18.801 26.952-12.499 49.604-30.699 68.006-54.601 18.4-23.848 32.552-53.899 42.404-90.199 9.849-36.252 14.8-77.301 14.8-123.2 0-51.199-5.199-96.3-15.6-135.401z" />
<glyph unicode="&#xe600;" glyph-name="e600" d="M512.647 959.408c-282.117 0-510.855-228.687-510.855-510.855 0-282.142 228.738-510.829 510.855-510.829 282.166 0 510.905 228.687 510.905 510.829 0 282.167-228.739 510.855-510.905 510.855zM819.16 220.289c0-14.966-12.871-27.139-28.735-27.139h-555.555c-15.864 0-28.735 12.173-28.735 27.139 0 0.1 0 0.1 0 0.1s0 99.103 76.529 135.122c48.392 22.799 29.733 4.291 89.2 27.587 59.466 23.348 73.535 31.431 73.535 31.431l0.55 53.68c0 0-22.3 16.163-29.185 66.65-13.92-3.79-18.559 15.466-19.357 27.739-0.699 11.873-8.081 48.891 8.929 45.599-3.441 24.744-5.936 46.993-4.739 58.867 4.29 41.457 46.495 84.785 111.549 87.953 76.479-3.168 106.763-46.446 111.051-87.953 1.198-11.823-1.496-34.123-4.99-58.867 17.013 3.342 9.579-33.625 8.781-45.499-0.748-12.273-5.486-31.529-19.355-27.688-6.935-50.537-29.186-66.502-29.186-66.502l0.498-53.43c0 0 14.119-7.632 73.487-30.881 59.465-23.346 40.807-5.885 89.299-28.684 76.429-36.019 76.429-135.122 76.429-135.122s0.001-0.001 0.001-0.101z" />
<glyph unicode="&#xe601;" glyph-name="e601" d="M782.623 102.497c-45.251 0-81.984-35.895-81.984-81.759 0-45.78 36.734-82.973 81.984-82.973 45.323 0 82.056 37.193 82.056 82.973 0 45.865-36.733 81.759-82.056 81.759zM335.907 102.497c-45.252 0-79.53-34.597-79.53-80.448 0-45.865 34.279-82.985 79.53-82.985 45.323 0 82.056 37.119 82.056 82.985 0 45.851-36.733 80.448-82.056 80.448zM945.507 795.15l-732.915-1.072-17.107 82.747c0 0 1.614 81.136-81.669 81.136 0 0-111.969 30.563-111.969-120.093l66.719 0.075c0 0 103.302-635.757 103.302-653.698 0-22.622 18.102-40.874 40.337-40.874h682.304c22.319 0 47.933-4.753 47.933 58.672 0 73.692-25.613 61.351-47.933 61.351h-616.658l-16.255 83.127 683.066-1.001c0 0 77.689 1.608 77.689 80.756l0.381 289.96c0.001 0.001-4.062 78.914-77.224 78.914zM903.788 508.562c0-22.623-18.095-40.873-40.413-40.873h-569.109c-22.318 0-40.343 18.25-40.343 40.873l-15.183 124.237c0 22.549 18.096 40.876 40.415 40.876h584.219c22.319 0 40.413-18.328 40.413-40.876v-124.237z" />
<glyph unicode="&#xe602;" glyph-name="e602" d="M412.935 390.885l263.559 19.289 64.971 158.574h-385.234l56.704-177.863zM512.887 960.032c-282.286 0-511.183-228.837-511.183-511.163 0-282.265 228.897-511.164 511.183-511.164s511.143 228.899 511.143 511.164c0 282.327-228.857 511.163-511.143 511.163zM816.857 588.595l-92.005-224.503c-4.513-11.063-14.337-18.927-25.917-19.768l-264.955-19.407 15.294-48.020h288.516c33.864 0 61.337-30.19 61.337-67.408 0-37.137-27.474-67.326-61.337-67.326s-61.336 30.19-61.336 67.326h-286.241c0-37.137-27.435-67.326-61.337-67.326s-61.337 30.19-61.337 67.326c0 37.219 27.434 67.408 61.337 67.408h55.427l-118.082 370.44h-70.243c-16.932 0-30.668 15.054-30.668 33.623 0 18.609 13.737 33.704 30.668 33.704h92.006c13.378 0 24.639-9.465 28.832-22.602l0.12 0.080 17.851-56.066h454.118c16.933 0 30.67-15.055 30.67-33.664 0-4.912-1.039-9.584-2.755-13.777l0.039-0.040z" />
<glyph unicode="&#xe603;" glyph-name="e603" d="M510.678 960.032c-283.212 0-512.745-229.534-512.745-512.72 0-283.161 229.534-512.746 512.745-512.746 283.162 0 512.745 229.584 512.745 512.746 0.001 283.187-229.583 512.72-512.745 512.72zM739.962 165.552c0-14.321-12.517-25.889-27.841-25.889h-538.783c-15.422 0-27.84 11.567-27.84 25.889v0.1c0 0 0 94.288 74.207 128.586 46.868 21.708 28.842 4.082 86.476 26.289 57.685 22.182 71.304 29.918 71.304 29.918l0.5 51.1c0 0-21.582 15.372-28.241 63.466-13.52-3.605-17.976 14.721-18.728 26.414-0.801 11.317-7.911 46.593 8.612 43.388-3.354 23.56-5.808 44.79-4.657 56.057 4.157 39.458 45.117 80.742 108.207 83.722 74.109-2.98 103.501-44.24 107.707-83.697 1.151-11.266-1.453-32.522-4.858-56.031 16.524 3.155 9.314-32.072 8.513-43.388-0.702-11.667-5.309-29.969-18.779-26.338-6.71-48.12-28.29-63.342-28.29-63.342l0.5-50.849c0 0 13.621-7.237 71.304-29.393 57.634-22.207 39.557-5.607 86.476-27.315 74.209-34.298 74.209-128.586 74.209-128.586v-0.1zM900.044 556.771h-88.629v-88.679c0-24.485-19.879-44.341-44.364-44.341-24.487 0-44.364 19.855-44.364 44.341v88.679h-88.628c-24.538 0-44.365 19.854-44.365 44.34s19.829 44.34 44.365 44.34h88.628v88.679c0 24.486 19.879 44.34 44.364 44.34s44.364-19.854 44.364-44.34v-88.679h88.629c24.487 0 44.364-19.854 44.364-44.34s-19.878-44.34-44.364-44.34z" />
<glyph unicode="&#xe604;" glyph-name="e604" d="M978.023 941.868c0 12.698-9.295 17.466-27.878 14.355-27.875-3.235-68.195-4.811-120.883-4.811-89.938 9.582-185.929 11.159-288.225 4.811-127.024-3.235-243.262-11.201-348.548-23.893-12.442-3.237-29.539-3.237-51.193 0-15.513 3.112-26.296 4.767-32.521 4.767-15.513 3.113-21.654 0-18.584-9.579 0-6.391 0-14.31 0-23.895-3.070-12.733-4.648-22.318-4.648-28.667 6.225-54.217 17.007-95.576 32.521-124.243 9.295-9.538 17.012-9.538 23.231 0 6.224 15.892 20.161 23.895 41.898 23.895 52.603 9.543 100.643 15.887 144.035 19.124-37.174-197.583-74.341-337.718-111.51-420.515-9.295-9.626-12.449-20.83-9.295-33.517 12.365-54.179 27.879-95.58 46.462-124.212 3.071-9.532 7.718-14.347 13.937-14.347 3.071 0 6.141 4.814 9.295 14.347-3.154 15.85 23.231 27.054 79.067 33.445 105.286 6.391 184.274 7.884 237.039 4.814-3.154-9.626-7.796-23.9-13.937-43.061-9.295-38.246-17.090-65.3-23.23-81.224-154.985 0-283.585-4.814-385.8-14.357-6.308 0-12.442 0-18.667 0-61.976-6.39-102.215-7.966-120.799-4.73-24.891 3.070-34.186-6.473-27.879-28.704 0-35.022 9.29-78.081 27.879-129.015 3.066-9.543 7.714-14.357 13.937-14.357 6.141 0 10.784 4.814 13.936 14.357 12.366 15.925 61.976 25.551 148.761 28.621 176.639 9.627 374.85 12.78 594.959 9.627 95.996-3.154 148.76-12.697 158.054-28.715 9.29-9.533 17.008-7.872 23.232 4.814 27.874 47.791 40.238 103.465 37.168 167.262 0 6.307-1.577 9.543-4.648 9.543 0 3.153-3.153 3.153-9.289 0 0-16.008-91.432-20.737-274.289-14.348h-23.232c27.874 114.658 54.175 216.619 79.067 305.812 3.071 12.692 10.784 35.009 23.232 66.955 9.29 31.774 15.429 52.516 18.583 62.142 9.295 31.779 13.936 63.636 13.936 95.581 3.071 19.082-10.865 26.961-41.814 23.89-27.874 0-55.752 0-83.715 0-114.657 6.307-202.936 7.885-264.912 4.731 3.071 15.929 9.29 36.587 18.584 62.142 9.29 28.667 15.514 49.367 18.583 62.142h4.648c34.099 3.112 110.017 1.535 227.745-4.809 43.391-3.195 75.913-4.772 97.651-4.772 40.237-3.195 71.269-7.966 92.925-14.315 18.666 0 30.949 6.349 37.25 19.087 9.294 19.124 15.436 38.247 18.583 57.371 0 9.538 1.494 19.124 4.648 28.667 3.072 12.691 4.648 28.662 4.648 47.784v0zM373.769 392.291c-3.149 6.389-1.655 17.509 4.648 33.444 6.141 38.245 15.43 76.491 27.879 114.738 30.944 6.307 91.348 7.885 181.281 4.731 21.655 0 37.173 0 46.462 0 18.584 3.154 24.808-9.543 18.584-38.246-3.153-9.544-6.219-23.895-9.29-42.978-6.224-28.709-12.447-51.024-18.584-66.876-15.517 0-40.32-1.658-74.34-4.812-71.353-3.237-120.882-6.39-148.761-9.532-15.596-0.001-24.891 3.142-27.879 9.531v0z" />
<glyph unicode="&#xe605;" glyph-name="e605" d="M320.737 513.361v188.432c0 73.066 51.69 132.304 115.466 132.304h153.945c63.782 0 115.472-59.238 115.472-132.304v-60.138h128.294v128.295c0 106.28-86.161 192.442-192.441 192.442h-256.589c-106.281 0-192.442-86.161-192.442-192.442v-256.589h-192.442v-577.329h1026.357v577.329h-705.62zM481.105 128.475c-53.141 0-96.221 28.713-96.221 64.147 0 19.208 12.939 36.25 33.001 48.017-0.592 5.537-1 11.158-0.927 16.949 0.686 53.145 29.959 95.854 65.373 95.404 35.433-0.462 63.592-43.893 62.922-97.038-0.073-5.192-0.633-10.185-1.224-15.158 20.249-11.755 33.297-28.87 33.297-48.172-0.001-35.436-43.080-64.148-96.22-64.148z" />
<glyph unicode="&#xe606;" glyph-name="e606" d="M1002.48 517.624v0l-257.496-195.445 99.221-317.89c1.532-4.99 2.376-10.251 2.376-15.736 0-27.762-21.42-50.262-47.916-50.262-10.524 0-20.198 3.523-28.109 9.557v-0.037l-259.412 196.9-259.489-196.865c-7.83-6.033-17.586-9.557-28.029-9.557-26.495 0-47.922 22.499-47.922 50.262 0 5.485 0.85 10.747 2.382 15.736l99.221 317.89-257.494 195.446c-11.976 9.14-19.813 23.959-19.813 40.7 0 27.799 21.426 50.299 47.922 50.299v0h318.696l98.682 316.395c5.988 20.582 24.268 35.556 45.844 35.556 21.581 0 39.781-14.973 45.769-35.556l98.76-316.395h318.696c26.416 0 47.922-22.499 47.922-50.299 0-16.741-7.836-31.56-19.812-40.7z" />
<glyph unicode="&#xe607;" glyph-name="e607" d="M1023.957 426.641c0-25.634-21.446-46.429-47.964-46.429-12.61 0-24.060 4.805-32.595 12.565l-0.156-0.109-430.918 417.315-430.003-416.394c-8.611-8.3-20.6-13.377-33.667-13.377-26.523 0-47.97 20.796-47.97 46.429 0 13.182 5.692 25.057 14.763 33.471l462.284 447.76c8.766 8.801 20.986 14.298 34.593 14.298v0 0 0c0.846 0 1.686-0.040 2.534-0.078 0.155 0 0.31-0.038 0.385-0.038 0.772-0.040 1.462-0.115 2.153-0.155 0.076 0 0.076-0.038 0.156-0.038 11.759-1.229 22.212-6.573 29.822-14.49l0.080 0.040 188.709-182.791v42.698c0 25.637 21.447 46.427 47.964 46.427 26.443 0 47.97-20.791 47.97-46.427v-135.633l179.026-173.341-0.155-0.115c7.994-8.301 12.99-19.329 12.99-31.589zM928.023 349.233v-325.193c0-25.632-21.446-46.387-47.964-46.387h-215.848v371.581h-311.776v-371.581h-207.852c-26.443 0-47.964 20.756-47.964 46.387v325.193l415.705 402.596 415.7-402.596z" />
<glyph unicode="&#xe608;" glyph-name="e608" d="M1005.239 29.186l-224.017 224.377c-4.857 4.869-10.436 8.575-16.391 11.148 56.986 72.040 91.013 163.073 91.013 262.050 0 233.486-189.288 422.747-422.748 422.747-233.461 0-422.747-189.262-422.747-422.747 0-233.46 189.286-422.748 422.747-422.748 99.070 0 190.182 34.091 262.255 91.177 2.566-5.931 6.254-11.494 11.098-16.349l224.017-224.377c20.589-20.643 54.081-20.643 74.723-0.053 20.642 20.592 20.642 54.082 0.051 74.776zM433.096 209.7c-175.095 0-317.060 141.964-317.060 317.060 0 175.094 141.964 317.060 317.060 317.060s317.060-141.965 317.060-317.060c0.001-175.096-141.964-317.060-317.060-317.060z" />
<glyph unicode="&#xe609;" glyph-name="e609" d="M1023.495-12.772v-0.167c0-27.186-21.383-49.231-47.742-49.231h-923.020c-26.357 0-47.743 22.045-47.743 49.231v0.167c0 0 0 179.574 127.065 244.887 80.482 41.279 49.483 7.71 148.283 50.065 98.717 42.189 122.092 56.942 122.092 56.942l0.912 97.31c0 0-36.967 29.174-48.405 120.764-23.208-6.963-30.833 28.016-32.159 50.312-1.243 21.468-13.428 88.605 14.837 82.554-5.801 44.8-9.947 85.249-7.874 106.675 7.045 75.177 77.166 153.713 185.252 159.473 127.064-5.719 177.459-84.255 184.502-159.432 2.073-21.426-2.487-61.874-8.288-106.633 28.264 6.009 15.996-61.004 14.669-82.555-1.325-22.214-9.116-57.11-32.157-50.146-11.606-91.589-48.572-120.601-48.572-120.601l0.911-96.81c0 0 23.374-13.759 122.094-55.949 98.8-42.272 67.799-10.69 148.283-51.97 127.063-65.313 127.063-244.887 127.063-244.887v0z" />
<glyph unicode="&#xe60a;" glyph-name="e60a" d="M638.12 351.804c0 3.475-0.253 6.906-0.733 10.286 9.325 6.692 18.278 14.104 26.818 22.164l229.774-0.468-138.882 163.043c7.118 29.378 10.952 60.54 10.952 92.821 0 176.653-114.559 319.825-255.86 319.825s-255.859-143.173-255.859-319.826c0-32.769 3.951-64.384 11.278-94.152l-138.331-160.15 228.225-0.465c8.741-8.305 17.921-15.926 27.49-22.792-0.48-3.38-0.733-6.81-0.733-10.286 0-52.971 57.28-95.947 127.931-95.947s127.93 42.976 127.93 95.947zM-1.53-63.968h1023.44l-255.859 319.825h-511.721l-255.86-319.825z" />
<glyph unicode="&#xe60b;" glyph-name="e60b" d="M512.206 960.198c-282.913 0-512.206-229.318-512.206-512.23 0-282.889 229.292-512.18 512.206-512.18 282.864 0 512.205 229.291 512.205 512.18 0 282.913-229.341 512.23-512.205 512.23zM688.227 201.269c0-14.581-11.755-26.486-26.211-26.486h-506.104c-14.405 0-26.16 11.905-26.16 26.486 0 0 0 0 0 0.050 0 0 0 96.314 69.728 131.352 44.118 22.134 27.11 4.177 81.232 26.837 54.123 22.683 67.028 30.587 67.028 30.587l0.5 52.17c0 0-20.309 15.682-26.61 64.826-12.705-3.752-16.857 15.030-17.608 26.935-0.701 11.53-7.352 47.594 8.104 44.343-3.102 24.009-5.402 45.718-4.302 57.173 3.902 40.341 42.367 82.484 101.542 85.56 69.728-3.076 97.338-45.169 101.19-85.51 1.152-11.504-1.348-33.163-4.55-57.173 15.506 3.201 8.804-32.763 8.002-44.293-0.601-11.955-4.952-30.612-17.608-26.936-6.302-49.144-26.61-64.676-26.61-64.676l0.5-51.896c0 0 12.856-7.429 67.027-30.086 54.075-22.685 37.115-5.728 81.232-27.863 69.681-35.038 69.681-131.352 69.681-131.352-0.003-0.049-0.003-0.049-0.003-0.049zM870.748 174.784h-177.419c13.306 3.001 23.259 14.907 23.259 29.261v0.051c0 0 0 109.268-79.032 148.96-33.811 16.955-36.012 13.755-52.819 17.756l0.499 47.345c0 0-18.457 14.23-24.159 58.948-11.556-3.376-15.356 13.656-16.056 24.535-0.65 10.454-6.704 43.267 7.402 40.292-2.902 21.858-4.952 41.591-3.902 52.071 3.502 36.69 38.516 75.004 92.336 77.831 63.476-2.826 88.536-41.142 92.087-77.782 1.052-10.454-1.25-30.262-4.153-52.071 14.105 2.926 8.003-29.786 7.355-40.291-0.651-10.88-4.552-27.837-16.056-24.486-5.804-44.718-24.21-58.848-24.21-58.848l0.449-47.219c0 0 11.655-6.727 60.875-27.361 49.268-20.608 33.813-5.178 73.929-25.335 63.426-31.864 63.426-119.523 63.426-119.523h-0.050l0.050-0.050c0-13.28-10.655-24.084-23.811-24.084z" />
<glyph unicode="&#xe60c;" glyph-name="e60c" d="M512.699 960.032c-283.138 0-512.699-229.537-512.699-512.698s229.561-512.727 512.699-512.727c283.136 0 512.698 229.564 512.698 512.726s-229.563 512.699-512.698 512.699zM760.988 490.768v-59.307h-177.944v-118.636h177.944v-59.307h-177.944v-118.637h-118.562v118.637h-178.042v59.307h178.042v118.636h-178.042v59.307h178.042l-237.323 237.247h118.662l177.943-177.942 177.943 177.942h118.612l-237.274-237.247h177.944z" />
<glyph unicode="&#xe60d;" glyph-name="e60d" d="M512.454 661.1l422.502-424.319h-180.813v-300.749h-484.287l-0.909 300.749h-178.087zM994.925 960.032v-120.845h-965.849v120.845h965.849z" />
<glyph unicode="&#xe701;" glyph-name="e701" d="M335.381 960.032v-538.299h-189.777l366.598-488.188 366.524 488.189h-189.705v538.298h-353.64z" />
<glyph unicode="&#xe702;" glyph-name="e702" d="M628.588 586.855c0 130.229-105.591 235.817-235.818 235.817-130.229 0-235.818-105.588-235.818-235.817 0-80.954 40.808-152.377 102.967-194.844-136.916-40.303-220.876-198.185-220.876-198.185-106.778-186.266 39.302-157.213 39.302-157.213 50.59 252.978 243.32 304.137 319.173 314.482 10.489 0.208 20.813 1.089 30.923 2.624 0.003 0 0.015 0 0.015 0s0 0.001 0 0.002c113.295 17.204 200.13 115.036 200.13 233.133zM392.771 429.643c-86.82 0-157.213 70.392-157.213 157.212s70.392 157.212 157.213 157.212c86.819 0 157.211-70.392 157.211-157.212s-70.391-157.212-157.211-157.212zM628.588 311.735c-46.828 11.649-47.708-21.121-39.303-39.303 0 0 145.774-70.845 117.908-235.817-2.35-13.909 88.581-37.642 78.605 78.605-10.593 123.437-110.385 184.866-157.211 196.515zM820.113 348.945h69.086v71.851h-69.086v-71.851zM974.869 822.883c-29.478 26.675-69.089 40.071-118.829 40.071-47.941 0-86.131-12.435-114.686-37.307-28.594-24.871-45.596-60.355-51.123-106.394l63.558-8.291c5.527 34.965 17.504 60.797 35.927 77.377 18.384 16.581 40.491 24.871 66.324 24.871 27.633 0 50.665-9.231 69.085-27.634 18.386-18.442 27.636-39.649 27.636-63.561 0-12.915-3.225-25.351-9.673-37.307-6.486-12.014-20.304-27.213-41.453-45.599-21.186-18.442-35.502-33.161-42.833-44.215-12.897-12.915-21.187-25.831-24.87-38.689-7.37-18.441-11.055-39.629-11.055-63.56v-19.344h60.796c0 25.773 1.381 44.215 4.145 55.27s7.332 20.726 13.817 29.016c6.448 8.291 19.767 21.629 40.072 40.071 29.437 25.774 49.742 47.882 60.797 66.324 11.054 18.385 16.581 38.689 16.581 60.797 0.001 38.688-14.778 71.37-44.214 98.103z" />
<glyph unicode="&#xe703;" glyph-name="e703" d="M510 936.496l169.412-308.116 344.544-66.38-239.841-256.806 43.525-349.14-317.64 149.422-317.668-149.422 43.544 349.14-239.861 256.807 344.562 66.38 169.424 308.115zM362.582 600.751l-299.94-58.021 208.792-224.426-37.901-305.124 276.533 130.575 276.524-130.575-37.883 305.124 208.782 224.426-299.94 58.021-147.483 269.278-147.484-269.278z" />
<glyph unicode="&#xe704;" glyph-name="e704" d="M966.347 959.562h-909.167c-31.578 0-57.18-25.6-57.18-57.18v-909.167c0-31.574 25.603-57.183 57.18-57.183h909.167c31.577 0 57.179 25.608 57.179 57.183v909.167c0 31.58-25.601 57.18-57.179 57.18zM567.47 50.429h-105.708v110.289h105.708v-110.289zM740.819 534.018c-16.912-28.303-47.96-62.236-93.019-101.808-31.052-28.303-51.461-48.785-61.305-61.51-9.914-12.726-16.915-27.574-21.142-44.54s-6.342-45.27-6.342-84.84h-93.020v29.696c0 36.717 5.618 69.265 16.915 97.566 5.611 19.751 18.299 39.568 38.049 59.386 11.236 16.971 33.103 39.571 65.541 67.874 32.369 28.236 53.51 51.568 63.417 69.993 9.844 18.36 14.804 37.449 14.804 57.266 0 36.72-14.139 69.265-42.282 97.567-28.212 28.235-63.423 42.422-105.705 42.422-39.507 0-73.33-12.726-101.473-38.179-28.211-25.452-46.509-65.089-54.964-118.777l-97.251 12.727c8.46 70.657 34.486 125.14 78.221 163.319 43.672 38.179 102.137 57.266 175.466 57.266 76.109 0 136.69-20.547 181.809-61.507 45.058-41.028 67.652-91.204 67.652-150.593-0.001-33.939-8.457-65.093-25.371-93.329z" />
<glyph unicode="&#xe705;" glyph-name="e705" d="M967.722 960.032h-910.46c-31.622 0-57.262-25.636-57.262-57.262v-910.461c0-31.621 25.64-57.266 57.262-57.266h910.461c31.623 0 57.262 25.645 57.262 57.266v910.462c-0.001 31.625-25.64 57.261-57.263 57.261zM535.99 240.496c0-26.025-21.042-47.118-46.995-47.118-10.339 0-19.812 3.446-27.568 9.117l-0.079-0.107-159.963 116.638h-157.046c-25.952 0-46.994 21.098-46.994 47.119v157.060c0 25.98 20.976 47.033 46.872 47.11v0.123h155.815l159.203 130.592 0.134-0.168c8.102 6.66 18.33 10.817 29.626 10.817 25.953 0 46.995-21.095 46.995-47.118v-424.065zM630.864 268.337c38.578 48.361 61.784 109.594 61.784 176.336 0 66.748-23.207 127.978-61.784 176.342l44.601 44.716c49.82-59.916 79.849-136.95 79.849-221.059 0-84.103-30.030-161.135-79.849-221.054l-44.601 44.717zM797.627 101.147l-44.619 44.73c69.541 80.018 111.967 184.338 111.967 298.798 0 114.465-42.426 218.786-111.967 298.801l44.619 44.733c80.842-91.468 130.012-211.713 130.012-343.534s-49.17-252.066-130.012-343.528z" />
<glyph unicode="&#xe706;" glyph-name="e706" d="M856.611 270.69c-53.593 0-101.113-25.641-131.265-65.238l-346.843 206.532c3.938 15.193 6.249 31.024 6.249 47.446 0 4.766-0.372 9.418-0.702 14.084l347.004 209.083c30.29-35.46 75.264-58.020 125.554-58.020 91.218 0 165.159 73.945 165.159 165.157 0 91.206-73.942 165.151-165.159 165.151-91.206 0-165.142-73.939-165.142-165.151 0-18.098 2.996-35.436 8.376-51.744l-344.055-178.404c-33.412 53.157-92.388 88.591-159.773 88.591-104.229 0-188.744-84.509-188.744-188.744 0-104.237 84.515-188.741 188.744-188.741 55.869 0 105.914 24.421 140.472 62.988l360.504-186.453c-3.47-13.327-5.503-27.247-5.503-41.683 0-91.218 73.947-165.154 165.154-165.154 91.212 0 165.148 73.936 165.148 165.154 0 91.209-73.959 165.145-165.177 165.145v0 0z" />
<glyph unicode="&#xe707;" glyph-name="e707" d="M965.791 960.032h-908.644c-31.56 0-57.148-25.586-57.148-57.148v-908.644c0-31.557 25.588-57.153 57.148-57.153h908.645c31.559 0 57.148 25.596 57.148 57.153v908.645c-0.001 31.561-25.59 57.147-57.149 57.147zM897.214 441.45c0-23.494-19.048-42.542-42.543-42.542h-297.802v-293.549c0-23.493-19.048-42.541-42.543-42.541h-4.253c-23.495 0-42.542 19.048-42.542 42.541v293.549h-293.551c-23.495 0-42.543 19.047-42.543 42.542v4.256c0 23.495 19.048 42.542 42.543 42.542h293.551v297.803c0 23.495 19.047 42.542 42.542 42.542h4.253c23.495 0 42.543-19.047 42.543-42.542v-297.804h297.802c23.495 0 42.543-19.047 42.543-42.542v-4.255z" />
<glyph unicode="&#xe708;" glyph-name="e708" d="M965.791 960.032h-908.644c-31.56 0-57.148-25.586-57.148-57.148v-908.644c0-31.557 25.588-57.153 57.148-57.153h908.645c31.559 0 57.148 25.596 57.148 57.153v908.645c-0.001 31.561-25.59 57.147-57.149 57.147zM897.214 441.45c0-23.494-19.048-42.542-42.543-42.542h-680.69c-23.495 0-42.543 19.047-42.543 42.542v4.256c0 23.495 19.048 42.542 42.543 42.542h680.69c23.495 0 42.543-19.047 42.543-42.542v-4.256z" />
<glyph unicode="&#xe709;" glyph-name="e709" d="M170.076 960.032h341.334v-341.333h-341.334v341.333zM511.41 618.699h341.333v-341.335h-341.333v341.335zM170.076 277.365h341.334v-341.333h-341.334v341.333z" />
<glyph unicode="&#xe710;" glyph-name="e710" d="M1018.572 115.277c-30.738 130.274-107.22 194.779-169.798 212.267-41.544 11.61-59.139-32.838-42.449-42.449 0 0 162.388-55.668 146.016-232.912-1.944-21.046 90.051-37.863 66.231 63.093zM848.774 624.691c0 140.657-114.040 254.697-254.697 254.697-79.224 0-150.003-36.182-196.718-92.919-18.43 5.223-37.879 8.021-57.978 8.021-117.192 0-212.248-95.034-212.248-212.248 0-77.213 41.252-144.795 102.903-181.935-121.291-35.972-195.761-182.222-195.761-182.222-93.73-170.753 34.491-144.097 34.491-144.097 41.656 217.606 194.962 270.914 269.365 283.965-89.288-63.45-132.803-153.298-132.803-153.298-96.756-201.205 50.633-167.119 50.633-167.119 23.854 262.534 247.352 319.946 340.309 332.483 13.663 0.115 27.066 1.307 40.136 3.494 0.072 0.001 0.122 0.002 0.122 0.002-0.001 0.006-0.003 0.012-0.004 0.018 120.451 20.213 212.251 124.967 212.251 251.158zM339.381 440.737c-78.142 0-141.484 63.363-141.484 141.506s63.343 141.505 141.484 141.505c6.595 0 13.083-0.462 19.439-1.335-12.516-30.093-19.439-63.097-19.439-97.721 0-64.715 24.154-123.783 63.922-168.717-19.2-9.742-40.919-15.238-63.922-15.238zM594.077 454.893c-93.771 0-169.799 76.029-169.799 169.798 0 93.771 76.029 169.798 169.799 169.798 93.772 0 169.798-76.028 169.798-169.798s-76.027-169.798-169.798-169.798z" />
<glyph unicode="&#xe711;" glyph-name="e711" d="M511.978 957.064c-281.131 0-509.031-227.902-509.031-509.033 0-281.128 227.902-509.031 509.031-509.031 281.133 0 509.033 227.904 509.033 509.031 0 281.132-227.901 509.033-509.033 509.033zM755.256 279.129l-243.279 243.276-243.276-243.276h-94.53l337.806 337.806 337.806-337.806h-94.527z" />
<glyph unicode="&#xe712;" glyph-name="e712" d="M511.98 955.656c-280.354 0-507.625-227.271-507.625-507.624s227.272-507.625 507.625-507.625 507.624 227.272 507.624 507.625c-0.001 280.354-227.27 507.624-507.624 507.624zM408.845 210.832l-263.354 263.354 35.478 35.479 227.876-227.877 403.445 403.445 35.478-35.478-438.923-438.923z" />
<glyph unicode="&#xe713;" glyph-name="e713" d="M512.008 712.832c26.691 0 53.382-10.149 73.678-30.388l421.002-421c17.91-17.91 17.91-46.923 0-64.841-17.912-17.911-46.928-17.911-64.846 0l-420.938 420.936c-5.017 4.955-12.871 5.017-17.917-0.056l-420.873-420.88c-17.914-17.911-46.933-17.911-64.844 0-17.913 17.918-17.913 46.931 0 64.841l420.934 420.939c20.36 20.3 47.054 30.449 73.803 30.449v0z" />
<glyph unicode="&#xe714;" glyph-name="e714" d="M697.984 777.897c0.339 50.067 0 140.388 0 140.388l-185.89-185.885-186.977 186.314c0 0 0.463-118.112 0-141.351-133.983 21.81-316.487-228.465-316.487-228.465l135.718-128.171 117.039 90.228-1.023-533.67h500.084l1.023 533.458 118.4-90.4 135.457 127.090c0.001 0.001-140.171 248.041-317.343 230.464zM511.979 476.886c-16.021 0-29.008 12.987-29.008 29.008s12.987 29.007 29.008 29.007c16.020 0 29.008-12.987 29.008-29.007s-12.988-29.008-29.008-29.008zM511.979 588.737c-16.021 0-29.008 12.987-29.008 29.008s12.987 29.007 29.008 29.007c16.020 0 29.008-12.987 29.008-29.007s-12.988-29.008-29.008-29.008z" />
<glyph unicode="&#xe715;" glyph-name="e715" d="M606.008 171.271c-14.313 10.403-50.553 17.076-95.040 19.094-40.566-0.609-85.545-15.754-93.725-18.625-0.021-0.031-0.043-0.063-0.064-0.093 10.335 3.004 84.53 22.616 188.829-0.376zM53.219 808.394v0c0 0.096 0 0.090 0 0zM446.708 232.742c-120.213 423.42-392.688 253.122-393.986 252.337 0 0 0.489 318.055 0.497 323.315-17.13 36.674-33.002-0.478-33.002-0.478l-1.357-354.972c0 0-80.844-342.322 164.844-379.664 68.637-8.462 172.419 10.037 233.473 98.366-0.82-0.238-1.249-0.376-1.249-0.376s0.456 0.167 1.315 0.469c10.849 15.712 20.346 33.627 28.055 53.998v7.006h1.409zM970.738 808.394v0c0 0.090 0 0.096 0 0zM1005.096 452.945l-1.356 354.972c0 0-15.871 37.152-33.002 0.478 0.009-5.26 0.496-323.315 0.496-323.315-1.299 0.785-273.771 171.082-393.985-252.337h1.242v-6.552c50.964-135.374 180.808-162.89 261.761-152.91 245.688 37.344 164.843 379.664 164.843 379.664zM577.25 232.742h-130.542c0.171-0.603 0.346-1.191 0.517-1.796-0.626-1.758-1.275-3.486-1.927-5.21v-0.405h133.195v0.859c-0.594 1.576-1.187 3.15-1.759 4.756 0.17 0.605 0.345 1.194 0.517 1.796z" />
<glyph unicode="&#xe716;" glyph-name="e716" d="M443.677 889.692h-121.256c0 0-126.985-160.795 36.325-287.535 0-17.937 0-86.977 0-86.977l-349.443-376.046c0 0 407.322-298.858 1005.348 0-24.561 26.69-348.417 375.278-348.417 375.278s0.434 62.702 0 88.256c167.388 127.885 34.79 287.023 34.79 287.023h-120.744l-53.721-167.302-82.884 167.302z" />
<glyph unicode="&#xe717;" glyph-name="e717" d="M192.465 889.534l-184.697-250.187 112.814-146.835 76.999 18.414v-384.739l122.791-119.722 133.025 120.233v187.255h115.627l1.023-187.255 134.048-120.233 122.279 120.233-1.023 384.23 78.278-19.952 112.558 147.349-185.207 251.208h-249.166v-185.721l-69.069-36.325-71.115 36.837v185.209z" />
<glyph unicode="&#xe718;" glyph-name="e718" d="M511.973 651.353v163.138c0 16.305-6.282 32.68-18.67 45.13-12.383 12.45-28.759 18.608-45.062 18.608-16.308 0-32.673-6.158-45.061-18.608l-401.101-395.68 401.101-395.62c12.388-12.45 28.754-18.677 45.061-18.677 16.303 0 32.68 6.228 45.062 18.677 12.388 12.447 18.67 28.816 18.67 45.058v158.662c175.284-4.363 366.803-36.102 509.905-254.269v63.744c0 295.277-223.088 538.091-509.905 569.838v0z" />
<glyph unicode="&#xe719;" glyph-name="e719" d="M512 768c-223.318 0-416.882-130.042-512-320 95.118-189.958 288.682-320 512-320 223.312 0 416.876 130.042 512 320-95.116 189.958-288.688 320-512 320zM764.45 598.296c60.162-38.374 111.142-89.774 149.434-150.296-38.292-60.522-89.274-111.922-149.436-150.296-75.594-48.218-162.89-73.704-252.448-73.704-89.56 0-176.858 25.486-252.452 73.704-60.158 38.372-111.138 89.772-149.432 150.296 38.292 60.524 89.274 111.924 149.434 150.296 3.918 2.5 7.876 4.922 11.86 7.3-9.96-27.328-15.41-56.822-15.41-87.596 0-141.382 114.616-256 256-256 141.382 0 256 114.618 256 256 0 30.774-5.452 60.268-15.408 87.598 3.978-2.378 7.938-4.802 11.858-7.302v0zM512 544c0-53.020-42.98-96-96-96s-96 42.98-96 96 42.98 96 96 96 96-42.982 96-96z" />
<glyph unicode="&#xe720;" glyph-name="e720" d="M936.867 538.73c5.551-27.651 8.535-56.244 8.535-85.52 0-123.231-51.825-234.102-134.591-312.817l103.901-103.898c10.237-10.239 10.237-26.787 0-37.030-10.237-10.239-26.785-10.239-37.022 0l-107.158 107.156c-71.93-53.446-160.724-85.471-257.189-85.471-96.863 0-185.999 32.261-258.030 86.096l-104.825-104.82c-9.817-9.823-25.74-9.823-35.535 0-9.815 9.792-9.815 25.713 0 35.534l101.706 101.735c-83.219 78.732-135.378 189.916-135.378 313.515 0 29.276 2.985 57.869 8.535 85.546-52.867 40.67-87.091 104.404-87.091 176.308 0 122.916 99.661 222.576 222.576 222.576 64.286 0 122.023-27.414 162.665-71.015 39.696 12.045 81.75 18.644 125.376 18.644s85.653-6.598 125.373-18.644c40.641 43.602 98.38 71.015 162.664 71.015 122.916 0 222.577-99.66 222.577-222.576-0.002-71.905-34.225-135.64-87.092-176.335v0zM225.3 885.269c-94.007 0-170.203-76.197-170.203-170.204 0-47.209 19.218-89.868 50.248-120.687 38.652 111.651 121.58 202.333 227.97 251.251-29.456 24.373-66.771 39.64-108.015 39.64v0zM513.344 832.902c-209.693 0-379.69-169.998-379.69-379.691 0-209.723 169.998-379.69 379.69-379.69 209.694 0 379.685 169.967 379.685 379.69 0 209.665-169.992 379.691-379.685 379.691v0zM801.379 885.269c-41.242 0-78.557-15.266-108.015-39.669 106.392-48.917 189.324-139.592 227.969-251.249 31.033 30.847 50.248 73.505 50.248 120.714 0.004 93.98-76.192 170.204-170.202 170.204v0zM709.732 413.929h-209.486c-14.479 0-26.182 11.705-26.182 26.19v235.667c0 14.481 11.704 26.183 26.182 26.183 14.485 0 26.192-11.703 26.192-26.183v-209.481h183.296c14.477 0 26.183-11.705 26.183-26.186-0.001-14.487-11.707-26.19-26.184-26.19v0z" />
<glyph unicode="&#xe721;" glyph-name="e721" d="M831.819 744.132c-41.329 41.329-89.451 73.769-143.047 96.443-55.501 23.473-114.439 35.375-175.192 35.375-60.744 0-119.688-11.902-175.192-35.375-53.593-22.674-101.724-55.115-143.044-96.443-41.323-41.326-73.772-89.454-96.437-143.047-23.479-55.501-35.381-114.442-35.381-175.192 0-60.741 11.902-119.682 35.381-175.186 22.663-53.596 55.109-101.724 96.437-143.047 6.241-6.243 12.648-12.253 19.193-18.084l-83.845-83.845 36.841-36.841 88.128 88.12c25.805-18.078 53.447-33.4 82.73-45.799 55.504-23.467 114.448-35.375 175.192-35.375 60.752 0 119.691 11.908 175.192 35.375 29.281 12.399 56.926 27.724 82.725 45.799l88.134-88.12 36.841 36.841-83.86 83.848c6.548 5.831 12.964 11.84 19.204 18.084 41.323 41.323 73.772 89.448 96.44 143.047 23.476 55.504 35.375 114.445 35.375 175.186 0 60.75-11.896 119.691-35.375 175.192-22.668 53.59-55.112 101.718-96.44 143.044v0zM794.981 144.504c-75.162-75.167-175.101-116.558-281.398-116.558-106.294 0-206.231 41.387-281.395 116.558-75.162 75.162-116.56 175.095-116.56 281.392 0 106.3 41.39 206.239 116.56 281.401 75.162 75.162 175.101 116.56 281.395 116.56 106.297 0 206.234-41.396 281.398-116.56s116.558-175.101 116.558-281.401c0-106.3-41.396-206.231-116.558-281.392v0zM512.363 646.097h-52.101v-311.050h207.778v52.11h-155.677v258.94zM12.189 734.524l187.082 187.082 46.048-46.051-187.082-187.088-46.048 46.057zM781.836 875.552l46.048 46.051 187.082-187.082-46.051-46.057-187.079 187.088z" />
<glyph unicode="&#xe722;" glyph-name="e722" d="M512.647 172.371c-210.274 0-381.361 171.069-381.361 381.346 0 210.271 171.090 381.358 381.361 381.358 210.274 0 381.341-171.090 381.341-381.358 0-210.277-171.067-381.346-381.341-381.346v0zM512.647 895.269c-188.34 0-341.554-153.211-341.554-341.551 0-188.322 153.214-341.539 341.554-341.539 188.325 0 341.536 153.217 341.536 341.539 0 188.337-153.211 341.551-341.536 341.551v0zM850.947-33.298l-182.965 182.948c-7.768 7.771-7.768 20.383 0 28.148 7.782 7.747 20.36 7.747 28.145 0l115.016-115.027v108.205h108.231l-101.578 101.572c-7.768 7.759-7.768 20.378 0 28.142 7.785 7.753 20.36 7.753 28.145 0l169.498-169.513h-164.492v-164.475zM174.343-33.298v164.475h-164.49l169.484 169.513c7.782 7.747 20.354 7.747 28.142 0 7.768-7.765 7.768-20.383 0-28.142l-101.566-101.572h108.237v-108.205l114.995 115.027c7.791 7.747 20.36 7.747 28.151 0 7.768-7.765 7.768-20.378 0-28.148l-182.954-182.948zM361.185 344.319v396.311h175.677c35.346 0 62.198-3.599 80.545-10.705 18.371-7.092 33.046-19.667 44.099-37.654 10.989-18.078 16.434-38.017 16.434-59.778 0-28.145-9.032-51.762-27.312-71.066-18.186-19.283-46.308-31.542-84.34-36.808 13.923-6.653 24.453-13.192 31.65-19.737 15.313-14.020 29.81-31.636 43.552-52.675l68.921-107.889h-65.957l-52.42 82.502c-15.31 23.701-27.941 41.981-37.923 54.535-9.889 12.63-18.73 21.495-26.571 26.466-7.864 5.082-15.778 8.587-23.888 10.62-6.015 1.202-15.685 1.846-29.243 1.846h-60.826v-175.973l-52.4 0.003zM413.588 565.684h112.748c23.903 0 42.73 2.484 56.194 7.478 13.567 4.988 23.821 12.923 30.817 23.815 7.019 10.878 10.527 22.68 10.527 35.515 0 18.73-6.738 34.137-20.395 46.22-13.561 12.098-35.053 18.096-64.497 18.096h-125.393v-131.125z" />
<glyph unicode="&#xe723;" glyph-name="e723" d="M995.951 571.769c-2.159 2.153-4.912 4.292-4.912 4.292l-439.975 315.079c-22.625 17.347-53.514 17.347-78.778-3.169l-428.093-304.731c0 0-13.125-11.015-19.181-15.787-15.053-11.837-17.212-25.814-17.212-47.335 0-29.049 25.814-56.428 57.92-56.428l0.020-0.041 21.776 0.041c2.206-0.041 8.376-0.825 11.592-4.081 2.153-2.18 3.233-6.083 3.186-11.565l-0.023-404.53c0-33.497 21.799-57.639 57.183-57.639h232.861c2.662 0 24.948 0.503 41.879 17.44 8.011 8.008 17.554 22.578 17.554 46.744v121.754l-0.205 16.773c0 3.578-1.539 16.843 9.134 29.439 8.745 10.284 24.070 15.992 45.574 16.96l0.939 0.067c9.59 0.784 38.026-0.418 54.175-15.1 9.134-8.303 13.704-20.193 13.909-36.343v-133.55c0-24.166 9.57-38.985 17.581-46.975 16.931-16.911 39.351-16.96 42.107-16.96l234.329-0.085c19.14 0 34.676 6.036 45.024 20.694 7.662 10.878 11.887 25.331 11.887 40.755v1.905l-0.023 0.135v396.355c0 11.934 9.386 15.237 17.253 15.907l19.962 2.109 0.325 0.091c31.112 0 53.716 22.739 53.716 56.080 0.018 28.040-10.723 40.94-21.484 51.7v0zM957.379 508.436l-19.924-2.112-0.272-0.091c-32.973-3.9-55.782-28.388-55.782-60.305v-399.802c-0.184-5.503-1.536-10.509-3.672-13.561-0.916-1.308-2.639-3.739-9.043-3.76l-233.686 0.389c-5.992 0-9.593 3.602-11.981 7.186-2.294 3.441-2.867 6.63-2.867 13.698v134.006c-0.389 29.076-10.070 52.388-28.862 69.322-32.657 29.441-79.79 26.984-87.453 26.364-34.626-1.627-60.829-12.87-77.877-33.406-21.112-25.448-19.003-52.967-19.003-63.839v-132.427c0-12.458-4.611-15.462-6.334-16.586-3.189-2.092-7.159-2.709-8.584-2.777h-232.12c-6.796 0-15.079 0.869-15.079 12.87l0.067 404.182c0.184 22.692-6.837 36.481-14.617 44.052-16.592 16.156-38.918 16.756-43.579 16.709-0.339 0-21.82 0.018-22.162 0.047-8.125 0.594-14.573 7.411-14.573 15.714 0 4.523 1.653 7.967 3.487 9.895 28.573 30.082 450.624 322.235 450.624 322.235s2.984 2.525 4.108 3.283c3.236 2.159 6.448 2.159 9.687 0 2.016-1.355 2.382-1.647 4.313-3.233 0 0 403.839-282.539 446.865-320.176 4.585-4.014 6.077-7.452 6.077-11.975 0-9.503-5.966-14.848-17.759-15.904v0z" />
<glyph unicode="&#xe724;" glyph-name="e724" d="M507.977 264.37l-444.606 444.606c-14.822 14.819-37.051 14.819-51.87 0-14.822-14.822-14.822-37.045 0-51.87l466.836-466.836c7.411-7.411 22.227-14.822 29.637-14.822 7.414 0 22.23 0 29.643 7.411l474.247 474.247c14.816 14.825 14.816 37.048 0 51.87-14.825 14.819-37.048 14.819-51.87 0l-452.017-444.606z" />
<glyph unicode="&#xe907;" glyph-name="e907" d="M937.502 407.684l-15.551-15.553c0 0-293.492-244.57-409.118-397.979-117.844 155.668-409.077 397.979-409.077 397.979l-15.585 15.553c-113.366 113.434-113.366 297.948 0 409.118 113.393 113.393 297.945 113.393 409.111 0l15.549-15.592 15.558 15.592c113.393 113.393 297.907 113.393 409.111 0 111.134-111.17 111.134-295.718 0.002-409.118v0z" />
</font>
</defs>
</svg>
